<?xml version="1.0" encoding="utf-8"?>
<!-- Generator: Adobe Illustrator 20.1.0, SVG Export Plug-In . SVG Version: 6.00 Build 0)  -->
<svg version="1.1" id="Layer_1" xmlns="http://www.w3.org/2000/svg" xmlns:xlink="http://www.w3.org/1999/xlink" x="0px" y="0px"
	 viewBox="0 0 6922 1806.2" style="enable-background:new 0 0 6922 1806.2;" xml:space="preserve">
<style type="text/css">
	.st0{fill:#FFFFFF;}
</style>
<g>
	<g>
		<path class="st0" d="M2598,621.5c-69.3-131.9-216.9-289.1-526.3-289.1h-74.4v790h148.9V478.1c146.7,16.7,253,84.7,316.6,202.8
			c58.5,108.6,59.9,221.3,59.9,222c0,1.1-1.4,113.8-59.9,222.4c-73.9,137.2-205.5,206.8-391,206.8h-91c-5.3,0-8.6-2.6-10.3-4.4
			c-0.3-0.3-0.5-0.7-0.8-1l-356.9-518.4L1829.7,602l-105.3-100.1l-242.1,230.3V332.5h-148.9V1319c0,7.3-6.2,13.2-13.8,13.2h-529
			v141.6h529c89.8,0,162.7-69.3,162.7-154.8V932.4l22.9-21.8l336.5,488.6l0.6,0.8l0.6,1.8l5.1,6.5l2.7,4l2.1,2
			c30.6,37.2,78.1,59.4,127.9,59.4h91c309.4,0,457-157.2,526.3-289.1c72.7-138.3,73.5-275.8,73.5-281.6
			C2671.5,897.3,2670.7,759.9,2598,621.5z"/>
		<rect x="239" y="1032.2" class="st0" width="910.6" height="141.6"/>
		<rect x="605.7" y="732.3" class="st0" width="553.8" height="141.6"/>
	</g>
	<g>
		<g>
			<path class="st0" d="M3311.2,540.7l101.2-109.5c10.9-11.7,15.7-25.5,15.7-39c0-30.6-25.3-59.8-62.6-59.8
				c-18.3,0-35.8,7.7-47.7,21L3161.3,529V399.6c0-37.1-31.6-67.1-70.5-67.1c-39,0-70.6,30-70.6,67.1v350c0,18.5,7.9,35.3,20.7,47.4
				s30.4,19.7,49.9,19.7c38.9,0,70.5-30,70.5-67.1v-58.1l51.6-54.6l107.3,150.7c6.5,9.1,15.2,16.4,25.1,21.4
				c9.9,5,21.1,7.7,32.7,7.7c56.1,0,89.2-59.8,57.4-103.9L3311.2,540.7z"/>
			<path class="st0" d="M3894.7,332.5H3596c-27.6,0-50.1,21.3-50.1,47.6v369.6c0,18.5,7.9,35.3,20.7,47.4
				c13.9,13.2,33.8,21,55.3,19.5c37.2-2.7,65.1-33.7,65.1-69.1V643.8h182.1c16.2,0,30.8-6.2,41.4-16.3c11.5-11,18.3-26.5,17-43.5
				c-2.2-29.4-29.2-51.6-60.2-51.6h-180.3v-82.3h207.6c32.3,0,58.5-24.9,58.5-55.7v-6.2C3953.2,357.4,3927,332.5,3894.7,332.5z"/>
			<path class="st0" d="M4408,332.5c-39.5,0-71.6,30.5-71.6,68.1V605c0,67.8-37.1,99.6-93.8,99.6c-56.7,0-93.8-33.2-93.8-103.1v-201
				c0-18.8-8-35.9-21-48.2c-12.9-12.3-30.9-20-50.6-20c-39.5,0-71.6,30.5-71.6,68.1v203.7c0,151.5,90.9,221.4,235.6,221.4
				c144.7,0,238.5-68.5,238.5-224.8V400.6c0-18.8-8-35.9-21-48.2C4445.7,340.1,4427.8,332.5,4408,332.5z"/>
			<path class="st0" d="M4776.3,332.5h-168.1c-27.6,0-50.1,21.3-50.1,47.6V751c0,36.3,30.9,65.7,69.1,65.7h3
				c38.1,0,69.1-29.4,69.1-65.7v-72.6h69.7c126.6,0,218.9-60.2,218.9-174.3v-1.4C4987.9,395.4,4905,332.5,4776.3,332.5z
				 M4846.9,510.2c0,38.1-30.6,63-80.8,63h-66.8v-128h66.2c50.9,0,81.4,22.1,81.4,63.7V510.2z"/>
			<path class="st0" d="M5487.8,332.5c-33.2,0-64,16.4-81.4,43.3L5312.9,520l-93.4-144.2c-20.7-32-60.3-49.1-100.4-41.5
				c-45.1,8.5-76.7,47.8-76.7,91.6V751c0,36.3,30.9,65.7,69.1,65.7l0,0c38.1,0,69.1-29.4,69.1-65.7V540l104.7,152
				c0.3,0.5,0.6,1.1,1,1.5c5.6,7.5,14.8,12.4,25.2,12.4c10.5,0,19.7-4.9,25.3-12.5c0.3-0.4,0.6-0.8,0.9-1.2l105.5-153.6V751
				c0,36.3,30.9,65.7,69.1,65.7h2.2c38.1,0,69.1-29.4,69.1-65.7V423.5C5583.4,373.2,5540.6,332.5,5487.8,332.5z"/>
		</g>
		<g>
			<path class="st0" d="M3215.9,986.1h-113.7c-45.6,0-82.6,35.2-82.6,78.6v337.8c0,37.5,32,67.9,71.4,67.9h122
				c183.2,0,290.1-103.7,290.1-243.5v-1.4C3503.1,1085.7,3397.7,986.1,3215.9,986.1z M3358.4,1228.9c0,78.2-56,122.4-140.4,122.4
				h-57.4v-246.2h57.4c84.4,0,140.4,44.9,140.4,122.4V1228.9z"/>
			<path class="st0" d="M3928.1,1356.2h-217.8v-76.8H3899c30.7,0,55.6-23.7,55.6-52.9s-24.9-52.9-55.6-52.9h-188.7v-73.3h214.1
				c30.7,0,55.6-23.7,55.6-52.9v-8.3c0-29.2-24.9-52.9-55.6-52.9h-271.1c-45.6,0-82.6,35.2-82.6,78.6v337.8
				c0,37.5,32,67.9,71.4,67.9h286c30.7,0,55.6-23.7,55.6-52.9v-8.2C3983.7,1379.9,3958.8,1356.2,3928.1,1356.2z"/>
			<path class="st0" d="M4376.4,1352.7h-184.7v-299.6c0-37.1-31.6-67.1-70.5-67.1l0,0c-38.9,0-70.5,30-70.5,67.1v349.2
				c0,37.5,32,67.9,71.4,67.9h254.4c34.1,0,61.8-26.3,61.8-58.8C4438.2,1379,4410.5,1352.7,4376.4,1352.7z"/>
			<path class="st0" d="M4567.6,986.1h-0.7c-38.9,0-70.5,30-70.5,67.1v349.7c0,37.3,31.7,67.4,70.9,67.4h0
				c39.2,0,70.9-30.2,70.9-67.4v-349.7C4638.1,1016.1,4606.6,986.1,4567.6,986.1z"/>
			<path class="st0" d="M5124.3,986.1c-29.9,0-56.6,17.9-66.7,44.7l-98.8,261.8l-98.8-261.8c-10.1-26.8-36.8-44.7-66.7-44.7h-2.9
				c-50.2,0-84.5,48.3-65.8,92.6l142.8,337.3c14.8,34.9,50.4,57.8,89.9,57.8h0c39.5,0,75.1-22.9,89.9-57.8l142.8-337.3
				C5208.8,1034.4,5174.5,986.1,5124.3,986.1z"/>
			<path class="st0" d="M5631,1356.2h-217.7v-76.8h188.6c30.7,0,55.6-23.7,55.6-52.9s-24.9-52.9-55.6-52.9h-188.6v-73.3h214.1
				c30.7,0,55.6-23.7,55.6-52.9v-8.3c0-29.2-24.9-52.9-55.6-52.9h-271.2c-45.6,0-82.6,35.2-82.6,78.6v337.8
				c0,37.5,32,67.9,71.4,67.9h286c30.7,0,55.6-23.7,55.6-52.9v-8.2C5686.6,1379.9,5661.7,1356.2,5631,1356.2z"/>
			<path class="st0" d="M5994.2,986.1h-158.1c-45.6,0-82.6,35.2-82.6,78.6v342c0,35.2,30,63.7,67,63.7h7.2c37,0,67-28.5,67-63.7
				v-82.9h61.8l82.7,118.2c12.4,17.8,33.3,28.4,55.8,28.4l0,0c53.9,0,85.7-57.4,55.3-99.7l-49.7-69
				c63.2-25.6,104.7-74.7,104.7-148.8v-1.4c0-47.8-15.2-85.1-45.1-112.8C6125.9,1005.4,6072,986.1,5994.2,986.1z M6063.3,1161
				c0,35.3-27.6,57.5-75.6,57.5h-93v-116.2h92.3c47.2,0,76.3,19.4,76.3,57.4V1161z"/>
			<path class="st0" d="M6616.2,986.1c-24,0-46.1,12.3-58,32.1l-86.3,144.3l-85.6-144.1c-11.8-19.9-34-32.3-58.1-32.3h-3.2
				c-52,0-84,54.1-57,96.4l131.9,206.6v113.8c0,37.3,31.7,67.4,70.9,67.4l0,0c39.2,0,70.9-30.2,70.9-67.4V1287l131.4-204.3
				C6700.3,1040.3,6668.3,986.1,6616.2,986.1z"/>
		</g>
	</g>
</g>
</svg>
